<?xml version="1.0" encoding="iso-8859-1"?>
<!-- Uploaded to: SVG Repo, www.svgrepo.com, Generator: SVG Repo Mixer Tools -->
<svg height="800px" width="800px" version="1.1" id="Layer_1" xmlns="http://www.w3.org/2000/svg" xmlns:xlink="http://www.w3.org/1999/xlink" 
	 viewBox="0 0 512 512" xml:space="preserve">
<circle style="fill:#F871FF;" cx="54.79" cy="49.12" r="39.09"/>
<path style="fill:#B378DD;" d="M82.436,21.474c-0.616-0.616-1.254-1.199-1.9-1.766c1.07,11.211-2.689,22.796-11.273,31.38
	c-14.653,14.653-38.034,15.235-53.392,1.767c0.832,8.728,4.591,17.227,11.273,23.911c15.268,15.269,40.022,15.269,55.291,0
	C97.703,61.498,97.703,36.743,82.436,21.474z"/>
<circle style="fill:#F5BA3D;" cx="288.472" cy="294.273" r="207.774"/>
<path style="fill:#F5A51F;" d="M435.397,147.352c-1.542-1.542-3.109-3.045-4.687-4.529c48.877,80.002,38.721,185.903-30.499,255.124
	c-79.6,79.601-207.712,81.103-289.158,4.529c8.419,13.781,18.575,26.798,30.499,38.72c81.143,81.143,212.702,81.143,293.845,0
	C516.54,360.055,516.54,228.495,435.397,147.352z"/>
<circle cx="457.585" cy="173.4" r="10.047"/>
<path d="M446.529,444.154c62.338-65.719,77.651-163.52,37.84-245.27c-2.429-4.989-8.441-7.061-13.432-4.634
	c-4.989,2.429-7.062,8.444-4.634,13.432c36.906,75.781,21.631,166.768-38.01,226.409c-6.014,6.014-12.32,11.557-18.876,16.633
	c11.247-32.51,14.811-67.731,10.028-101.977c-6.588-47.181-27.923-89.971-61.697-123.747c-8.273-8.273-17.091-15.794-26.378-22.54
	c-0.735-0.714-1.567-1.306-2.468-1.76c-28.058-19.789-60.296-32.563-94.904-37.397c-34.246-4.78-69.464-1.218-101.973,10.03
	c5.076-6.556,10.619-12.863,16.633-18.876c37.346-37.347,87-57.914,139.817-57.914s102.471,20.568,139.817,57.914
	c3.924,3.921,10.284,3.924,14.209,0c3.924-3.925,3.924-10.286,0-14.209c-41.142-41.142-95.843-63.799-154.027-63.799
	c-52.743,0-102.622,18.618-142.137,52.746l-50.541-52.98c12.607-19.071,10.524-45.065-6.255-61.845
	c-19.163-19.16-50.337-19.16-69.5,0c-19.16,19.162-19.16,50.339,0,69.5c9.581,9.58,22.165,14.371,34.75,14.371
	c9.317,0,18.629-2.632,26.727-7.884l50.235,52.656c-13.972,14.47-25.542,30.411-34.712,47.32c-0.351,0.524-0.65,1.078-0.895,1.656
	c-43.73,82.338-30.968,187.039,38.305,256.312c25.201,25.199,55.09,42.923,86.886,53.168c0.698,0.309,1.428,0.528,2.177,0.674
	c21.116,6.56,43.038,9.856,64.963,9.856c35.221,0,70.44-8.476,102.309-25.406c0.506-0.217,0.987-0.488,1.453-0.786
	c14.03-7.592,27.392-16.834,39.805-27.727l46.797,48.757c1.973,2.055,4.608,3.09,7.25,3.09c2.502,0,5.007-0.928,6.955-2.798
	c4.003-3.842,4.134-10.202,0.292-14.205L446.529,444.154z M34.25,69.66c-11.326-11.325-11.326-29.755,0-41.081
	c5.663-5.664,13.101-8.496,20.54-8.496s14.878,2.832,20.54,8.496c11.326,11.325,11.326,29.755,0,41.081
	C64.007,80.988,45.574,80.988,34.25,69.66z M112.885,203.34c36.036-18.623,77.927-25.774,118.333-20.134
	c26.128,3.648,50.77,12.291,72.981,25.433c-17.523,9.798-33.634,21.987-48.047,36.397c-33.355,33.356-54.644,75.409-61.563,121.613
	c-5.433,36.291-1.329,73.608,11.545,107.398c-20.838-9.517-40.352-22.83-57.477-39.955C86.31,371.747,74.393,277.785,112.885,203.34
	z M232.361,483.844c-17.396-34.732-23.753-75.116-17.897-114.219c6.277-41.918,25.607-80.086,55.899-110.379
	c15.565-15.564,33.297-28.275,52.77-37.863c7.136,5.432,13.955,11.377,20.405,17.829c30.661,30.66,50.026,69.498,56.005,112.316
	c5.642,40.408-1.508,82.3-20.134,118.337C333.798,493.448,280.865,498.113,232.361,483.844z"/>
<path d="M464.852,296.49c0.576,0,1.16-0.05,1.748-0.153c5.466-0.958,9.119-6.166,8.16-11.632
	c-7.751-44.188-28.676-84.371-60.51-116.206c-28.873-28.871-65.058-48.98-104.647-58.158c-5.395-1.249-10.803,2.113-12.056,7.519
	c-1.253,5.405,2.114,10.803,7.519,12.057c35.922,8.326,68.764,26.582,94.975,52.791c28.898,28.898,47.892,65.369,54.928,105.468
	C455.825,293.055,460.065,296.49,464.852,296.49z"/>
<path d="M439.514,364.919c0.068,0.001,0.135,0.001,0.201,0.001c5.456,0,9.933-4.37,10.042-9.852
	c1.172-59.806-21.471-116.031-63.758-158.318c-27.816-27.814-62.572-47.579-100.511-57.156c-21.357-5.392-43.365-7.518-65.403-6.322
	c-5.541,0.303-9.789,5.037-9.487,10.578c0.303,5.541,5.04,9.786,10.578,9.487c20.018-1.088,39.999,0.843,59.393,5.738
	c34.425,8.69,65.969,26.631,91.221,51.883c38.385,38.385,58.94,89.424,57.875,143.715
	C429.557,360.224,433.966,364.809,439.514,364.919z"/>
<path d="M147.103,202.057c-4.673-2.994-10.887-1.633-13.878,3.042c-14.819,23.136-24.993,48.586-30.243,75.641
	c-1.057,5.447,2.501,10.72,7.949,11.777c0.646,0.126,1.29,0.186,1.925,0.186c4.715,0,8.92-3.333,9.852-8.134
	c4.766-24.551,13.996-47.642,27.438-68.631C153.138,211.263,151.775,205.048,147.103,202.057z"/>
<path d="M197.668,203.885c-4.113-3.725-10.468-3.413-14.191,0.702c-36.354,40.14-56.331,92.136-56.25,146.41
	c0.008,5.545,4.504,10.032,10.047,10.032c0.004,0,0.011,0,0.015,0c5.55-0.008,10.04-4.513,10.032-10.062
	c-0.072-49.268,18.057-96.464,51.049-132.894C202.097,213.963,201.781,207.609,197.668,203.885z"/>
<path d="M233.486,239.116c2.955-2.957,6.038-5.851,9.162-8.608c4.161-3.671,4.557-10.019,0.887-14.181
	c-3.671-4.158-10.019-4.556-14.181-0.887c-3.436,3.032-6.827,6.217-10.077,9.466c-43.091,43.093-66.268,102.744-63.589,163.662
	c0.238,5.392,4.685,9.605,10.03,9.605c0.149,0,0.3-0.003,0.45-0.009c5.543-0.245,9.839-4.936,9.596-10.48
	C173.331,332.382,194.37,278.231,233.486,239.116z"/>
<path d="M302.067,428.153c29.972,0,59.297-8.426,84.041-25.072c4.604-3.097,5.826-9.34,2.727-13.944
	c-3.096-4.604-9.342-5.829-13.944-2.727c-38.937,26.195-91.177,28.82-136.324,6.857c-4.993-2.43-11.004-0.35-13.43,4.639
	c-2.429,4.991-0.351,11.004,4.639,13.43C252.899,422.585,277.696,428.153,302.067,428.153z"/>
<path d="M380.989,445.818c4.945-2.517,6.914-8.567,4.398-13.511c-2.517-4.946-8.567-6.91-13.511-4.398
	c-46.558,23.694-93.666,27.352-129.24,10.039c-4.991-2.423-11.002-0.351-13.431,4.638c-2.429,4.99-0.352,11.002,4.638,13.431
	c17.573,8.552,37.378,12.791,58.362,12.791C320.525,468.809,350.991,461.084,380.989,445.818z"/>
<path d="M236.734,361.606c0.356,0.185,2.118,1.057,3.514,1.746l1.551,0.768c22.126,11.146,46.143,16.704,70.071,16.704
	c25.321,0,50.542-6.229,73.279-18.653c4.87-2.66,6.659-8.765,3.999-13.636c-2.662-4.868-8.764-6.658-13.636-3.999
	c-38.424,20.997-85.032,21.608-124.683,1.633l-1.688-0.835c-1.23-0.607-2.776-1.368-3.144-1.558
	c-4.926-2.559-10.989-0.642-13.548,4.283S231.809,359.047,236.734,361.606z"/>
<path d="M249.033,324.094c20.819,9.736,43.374,14.63,65.893,14.63c19.489,0,38.949-3.665,57.236-11.029
	c5.148-2.074,7.64-7.927,5.566-13.073c-2.072-5.147-7.924-7.645-13.073-5.566c-34.262,13.802-73.304,12.647-107.109-3.163
	c-5.03-2.35-11.008-0.181-13.359,4.844C241.838,315.763,244.006,321.743,249.033,324.094z"/>
<path d="M284.834,286.397c10.8,4.2,22.254,6.308,33.943,6.308c8.795,0,17.723-1.195,26.606-3.591
	c5.357-1.445,8.528-6.961,7.082-12.318c-1.444-5.357-6.957-8.529-12.318-7.083c-16.517,4.457-33.127,3.751-48.032-2.044
	c-5.17-2.012-10.994,0.551-13.005,5.723C277.1,278.563,279.663,284.387,284.834,286.397z"/>
</svg>